<svg width="512" height="512" viewBox="0 0 512 512" fill="none" xmlns="http://www.w3.org/2000/svg">
<path d="M185.6 230.4H230.4V275.2C230.4 276.898 231.074 278.525 232.275 279.726C233.475 280.926 235.103 281.6 236.8 281.6H275.2C276.897 281.6 278.525 280.926 279.725 279.726C280.926 278.525 281.6 276.898 281.6 275.2V230.4H326.4C328.097 230.4 329.725 229.726 330.925 228.526C332.126 227.325 332.8 225.698 332.8 224V185.6C332.8 183.903 332.126 182.275 330.925 181.075C329.725 179.874 328.097 179.2 326.4 179.2H281.6V134.4C281.6 132.703 280.926 131.075 279.725 129.875C278.525 128.674 276.897 128 275.2 128H236.8C235.103 128 233.475 128.674 232.275 129.875C231.074 131.075 230.4 132.703 230.4 134.4V179.2H185.6C183.903 179.2 182.275 179.874 181.075 181.075C179.874 182.275 179.2 183.903 179.2 185.6V224C179.2 225.698 179.874 227.325 181.075 228.526C182.275 229.726 183.903 230.4 185.6 230.4ZM460.8 89.6002C460.77 79.425 456.715 69.6749 449.52 62.4799C442.325 55.2849 432.575 51.2297 422.4 51.2002H89.6C79.4248 51.2297 69.6747 55.2849 62.4797 62.4799C55.2847 69.6749 51.2295 79.425 51.2 89.6002V358.4H460.8V89.6002ZM409.6 307.2H102.4V102.4H409.6V307.2ZM499.2 384H305.232C304.64 399.848 293.464 409.6 279.04 409.6H230.4C215.448 409.6 204 395.624 204.184 384H12.8C9.40523 384 6.1495 385.349 3.74903 387.749C1.34857 390.15 0 393.405 0 396.8L0 409.6C0.040098 423.167 5.44724 436.167 15.0404 445.76C24.6336 455.353 37.6332 460.76 51.2 460.8H460.8C474.367 460.76 487.366 455.353 496.96 445.76C506.553 436.167 511.96 423.167 512 409.6V396.8C512 393.405 510.651 390.15 508.251 387.749C505.851 385.349 502.595 384 499.2 384Z" fill="#107faa"/>
</svg>
